<svg width="64" height="64" viewBox="0 0 64 64" fill="none" xmlns="http://www.w3.org/2000/svg">
<path d="M39.92 34H37.8667H25.4133V41.5467H28.9067H39.92C42.4533 41.5467 44.5333 39.84 44.5333 37.76C44.5333 35.68 42.4533 34 39.92 34Z" fill="url(#paint0_linear_150_3517)"/>
<path d="M31.9999 5.33334C17.2799 5.33334 5.33325 17.28 5.33325 32C5.33325 46.72 17.2799 58.6667 31.9999 58.6667C46.7199 58.6667 58.6666 46.72 58.6666 32C58.6666 17.28 46.7199 5.33334 31.9999 5.33334ZM39.9199 45.5467H35.5199V49.3333C35.5199 50.4267 34.6133 51.3333 33.5199 51.3333C32.4266 51.3333 31.5199 50.4267 31.5199 49.3333V45.5467H28.9066H28.2933V49.3333C28.2933 50.4267 27.3866 51.3333 26.2933 51.3333C25.1999 51.3333 24.2933 50.4267 24.2933 49.3333V45.5467H23.4133H18.7999C17.7066 45.5467 16.7999 44.64 16.7999 43.5467C16.7999 42.4533 17.7066 41.5467 18.7999 41.5467H21.4133V32V22.4533H18.7999C17.7066 22.4533 16.7999 21.5467 16.7999 20.4533C16.7999 19.36 17.7066 18.4533 18.7999 18.4533H23.4133H24.2933V14.6667C24.2933 13.5733 25.1999 12.6667 26.2933 12.6667C27.3866 12.6667 28.2933 13.5733 28.2933 14.6667V18.4533H28.9066H31.5199V14.6667C31.5199 13.5733 32.4266 12.6667 33.5199 12.6667C34.6133 12.6667 35.5199 13.5733 35.5199 14.6667V18.4533H37.8666C41.9999 18.4533 45.6533 22.08 45.6533 26.24C45.6533 28.0267 45.0133 29.6533 43.9999 30.9867C46.6933 32.2933 48.5333 34.8533 48.5333 37.8133C48.5333 42.0533 44.6666 45.5467 39.9199 45.5467Z" fill="url(#paint1_linear_150_3517)"/>
<path d="M41.6533 26.2133C41.6533 24.4533 40 22.4267 37.8667 22.4267H28.9067H25.4133V29.9733H37.8667C39.9467 30 41.6533 28.2933 41.6533 26.2133Z" fill="url(#paint2_linear_150_3517)"/>
<defs>
<linearGradient id="paint0_linear_150_3517" x1="34.9733" y1="34" x2="34.9733" y2="41.5467" gradientUnits="userSpaceOnUse">
<stop offset="0.453125" stop-color="#D73798"/>
<stop offset="1" stop-color="#D73D59"/>
</linearGradient>
<linearGradient id="paint1_linear_150_3517" x1="31.9999" y1="5.33334" x2="31.9999" y2="58.6667" gradientUnits="userSpaceOnUse">
<stop offset="0.453125" stop-color="#D73798"/>
<stop offset="1" stop-color="#D73D59"/>
</linearGradient>
<linearGradient id="paint2_linear_150_3517" x1="33.5333" y1="22.4267" x2="33.5333" y2="29.9736" gradientUnits="userSpaceOnUse">
<stop offset="0.453125" stop-color="#D73798"/>
<stop offset="1" stop-color="#D73D59"/>
</linearGradient>
</defs>
</svg>
