<svg width="64" height="64" viewBox="0 0 64 64" fill="none" xmlns="http://www.w3.org/2000/svg">
<path d="M55.7334 26.2667L57.3068 52.64C57.3601 53.36 57.0134 53.84 56.8268 54.0533C56.6134 54.2933 56.1601 54.6667 55.4134 54.6667H48.1334L53.8934 26.2667H55.7334ZM58.6668 16L58.6401 16.0533C58.6934 16.6933 58.6401 17.36 58.4801 18.0267L38.8268 54.1067C38.1868 56.8 35.7868 58.6667 33.0134 58.6667H55.4134C58.8534 58.6667 61.5734 55.76 61.3068 52.32L58.6668 16Z" fill="url(#paint0_linear_150_3521)"/>
<path d="M30.5333 5.97334C30.8 4.90667 30.1333 3.81334 29.0666 3.54667C28 3.30667 26.9066 3.94667 26.64 5.01334L25.3066 10.5333H29.4133L30.5333 5.97334Z" fill="url(#paint1_linear_150_3521)"/>
<path d="M48.1334 5.89332C48.3734 4.79999 47.6801 3.75999 46.5868 3.51999C45.5201 3.27999 44.4534 3.97332 44.2134 5.06666L43.0134 10.5867H47.1201L48.1334 5.89332Z" fill="url(#paint2_linear_150_3521)"/>
<path d="M58.1866 14.2133C57.3066 12.08 55.2266 10.56 52.6666 10.56H47.1199L45.6266 17.4667C45.4132 18.4 44.5866 19.04 43.6799 19.04C43.5466 19.04 43.3866 19.04 43.2533 18.9867C42.1866 18.7467 41.4933 17.68 41.7066 16.6133L43.0132 10.5333H29.4132L27.7332 17.4667C27.5199 18.3733 26.6933 18.9867 25.7866 18.9867C25.6266 18.9867 25.4666 18.96 25.3066 18.9333C24.2399 18.6667 23.5732 17.6 23.8399 16.5067L25.2799 10.5067H19.8666C17.2532 10.5067 14.9332 12.2133 14.1599 14.72L2.93325 50.8533C1.75991 54.72 4.61325 58.6666 8.63991 58.6666H43.6799C46.4532 58.6666 48.8532 56.8 49.4932 54.1067L58.4799 18.0267C58.6399 17.36 58.6932 16.6933 58.6399 16.0533C58.5866 15.4133 58.4532 14.7733 58.1866 14.2133ZM39.1999 44.6666H17.8666C16.7732 44.6666 15.8666 43.76 15.8666 42.6666C15.8666 41.5733 16.7732 40.6666 17.8666 40.6666H39.1999C40.2933 40.6666 41.1999 41.5733 41.1999 42.6666C41.1999 43.76 40.2933 44.6666 39.1999 44.6666ZM41.8666 34H20.5332C19.4399 34 18.5332 33.0933 18.5332 32C18.5332 30.9067 19.4399 30 20.5332 30H41.8666C42.9599 30 43.8666 30.9067 43.8666 32C43.8666 33.0933 42.9599 34 41.8666 34Z" fill="url(#paint3_linear_150_3521)"/>
<defs>
<linearGradient id="paint0_linear_150_3521" x1="47.1691" y1="16" x2="47.1691" y2="58.6667" gradientUnits="userSpaceOnUse">
<stop stop-color="#D7369B"/>
<stop offset="1" stop-color="#D73E4A"/>
</linearGradient>
<linearGradient id="paint1_linear_150_3521" x1="27.9494" y1="3.49637" x2="27.9494" y2="10.5333" gradientUnits="userSpaceOnUse">
<stop stop-color="#D7369B"/>
<stop offset="1" stop-color="#D73E4A"/>
</linearGradient>
<linearGradient id="paint2_linear_150_3521" x1="45.5972" y1="3.4725" x2="45.5972" y2="10.5867" gradientUnits="userSpaceOnUse">
<stop stop-color="#D7369B"/>
<stop offset="1" stop-color="#D73E4A"/>
</linearGradient>
<linearGradient id="paint3_linear_150_3521" x1="30.6636" y1="10.5067" x2="30.6636" y2="58.6666" gradientUnits="userSpaceOnUse">
<stop stop-color="#D7369B"/>
<stop offset="1" stop-color="#D73E4A"/>
</linearGradient>
</defs>
</svg>
