<svg width="64" height="64" viewBox="0 0 64 64" fill="none" xmlns="http://www.w3.org/2000/svg">
<path d="M50.6665 21.3333C55.0848 21.3333 58.6665 17.7516 58.6665 13.3333C58.6665 8.91507 55.0848 5.33334 50.6665 5.33334C46.2482 5.33334 42.6665 8.91507 42.6665 13.3333C42.6665 17.7516 46.2482 21.3333 50.6665 21.3333Z" fill="url(#paint0_linear_150_3512)"/>
<path d="M52.8002 25.12C52.7468 25.12 52.6935 25.1467 52.6402 25.1467C52.3735 25.2 52.1068 25.2267 51.8135 25.28C50.6935 25.3867 49.4935 25.3333 48.2668 25.0933C47.9468 25.0133 47.6802 24.96 47.3868 24.8533C46.5068 24.64 45.6802 24.2933 44.9068 23.84C44.5868 23.68 44.2668 23.4667 43.9735 23.28C42.6935 22.4 41.6002 21.3067 40.7202 20.0267C40.5335 19.7333 40.3202 19.4133 40.1602 19.0933C39.7068 18.32 39.3602 17.4933 39.1468 16.6133C39.0402 16.32 38.9868 16.0533 38.9068 15.7333C38.6668 14.5067 38.6135 13.3067 38.7202 12.1867C38.7735 11.8933 38.8002 11.6267 38.8535 11.36C38.8535 11.3067 38.8802 11.2533 38.8802 11.2C39.2002 9.54667 37.9735 8 36.2668 8H20.0535C19.6802 8 19.3068 8.02667 18.9602 8.05333C18.6402 8.08 18.3468 8.10667 18.0268 8.16C17.7068 8.18667 17.3868 8.24 17.0935 8.29333C10.6668 9.22667 6.56016 13.3067 5.62683 19.76C5.5735 20.0533 5.52016 20.3733 5.4935 20.6933C5.44016 21.0133 5.4135 21.3067 5.38683 21.6267C5.36016 21.9733 5.3335 22.3467 5.3335 22.72V43.9467C5.3335 44.32 5.36016 44.6933 5.38683 45.04C5.4135 45.36 5.44016 45.6533 5.4935 45.9733C5.52016 46.2933 5.5735 46.6133 5.62683 46.9067C6.56016 53.36 10.6668 57.44 17.0935 58.3733C17.3868 58.4267 17.7068 58.48 18.0268 58.5067C18.3468 58.56 18.6402 58.5867 18.9602 58.6133C19.3068 58.64 19.6802 58.6667 20.0535 58.6667H41.2802C41.6535 58.6667 42.0268 58.64 42.3735 58.6133C42.6935 58.5867 42.9868 58.56 43.3068 58.5067C43.6268 58.48 43.9468 58.4267 44.2402 58.3733C50.6668 57.44 54.7735 53.36 55.7068 46.9067C55.7602 46.6133 55.8135 46.2933 55.8402 45.9733C55.8935 45.6533 55.9202 45.36 55.9468 45.04C55.9735 44.6933 56.0002 44.32 56.0002 43.9467V27.7333C56.0002 26.0267 54.4535 24.8 52.8002 25.12ZM18.0002 33.3333H31.3335C32.4268 33.3333 33.3335 34.24 33.3335 35.3333C33.3335 36.4267 32.4268 37.3333 31.3335 37.3333H18.0002C16.9068 37.3333 16.0002 36.4267 16.0002 35.3333C16.0002 34.24 16.9068 33.3333 18.0002 33.3333ZM42.0002 48H18.0002C16.9068 48 16.0002 47.0933 16.0002 46C16.0002 44.9067 16.9068 44 18.0002 44H42.0002C43.0935 44 44.0002 44.9067 44.0002 46C44.0002 47.0933 43.0935 48 42.0002 48Z" fill="url(#paint1_linear_150_3512)"/>
<defs>
<linearGradient id="paint0_linear_150_3512" x1="50.6665" y1="5.33334" x2="50.6665" y2="21.3333" gradientUnits="userSpaceOnUse">
<stop stop-color="#D736A5"/>
<stop offset="1" stop-color="#D73D56"/>
</linearGradient>
<linearGradient id="paint1_linear_150_3512" x1="30.6668" y1="8" x2="30.6668" y2="58.6667" gradientUnits="userSpaceOnUse">
<stop stop-color="#D736A5"/>
<stop offset="1" stop-color="#D73D56"/>
</linearGradient>
</defs>
</svg>
